<svg width="26" height="24" viewBox="0 0 26 24" fill="none" xmlns="http://www.w3.org/2000/svg">
<path fill-rule="evenodd" clip-rule="evenodd" d="M23 2.75C23.1381 2.75 23.25 2.86193 23.25 3V19.9608L21.8321 18.5429C21.6446 18.3554 21.3902 18.25 21.125 18.25H3C2.86191 18.25 2.75 18.1381 2.75 18V3C2.75 2.86192 2.86192 2.75 3 2.75H23ZM25.25 3C25.25 1.75737 24.2426 0.75 23 0.75H3C1.75733 0.75 0.75 1.75738 0.75 3V18C0.75 19.2427 1.75734 20.25 3 20.25H20.7108L23.5429 23.0821C23.8289 23.3681 24.259 23.4537 24.6327 23.2989C25.0064 23.1441 25.25 22.7795 25.25 22.375V3Z" fill="white"/>
<path fill-rule="evenodd" clip-rule="evenodd" d="M19 6.75C19 6.19772 18.5523 5.75 18 5.75H8C7.44771 5.75 7 6.19772 7 6.75C7 7.30228 7.44771 7.75 8 7.75H18C18.5523 7.75 19 7.30228 19 6.75Z" fill="white"/>
<path fill-rule="evenodd" clip-rule="evenodd" d="M19 10.5C19 9.94772 18.5523 9.5 18 9.5H8C7.44771 9.5 7 9.94772 7 10.5C7 11.0523 7.44771 11.5 8 11.5H18C18.5523 11.5 19 11.0523 19 10.5Z" fill="white"/>
<path fill-rule="evenodd" clip-rule="evenodd" d="M19 14.25C19 13.6977 18.5523 13.25 18 13.25H13C12.4477 13.25 12 13.6977 12 14.25C12 14.8023 12.4477 15.25 13 15.25H18C18.5523 15.25 19 14.8023 19 14.25Z" fill="white"/>
</svg>
