<svg width="16" height="3" viewBox="0 0 16 3" fill="none" xmlns="http://www.w3.org/2000/svg">
<path fill-rule="evenodd" clip-rule="evenodd" d="M6.10352e-05 1.19994C6.10352e-05 0.881679 0.0937115 0.576455 0.260411 0.351411C0.42711 0.126367 0.653202 -6.10352e-05 0.88895 -6.10352e-05H15.1112C15.3469 -6.10352e-05 15.573 0.126367 15.7397 0.351411C15.9064 0.576455 16.0001 0.881679 16.0001 1.19994C16.0001 1.5182 15.9064 1.82342 15.7397 2.04847C15.573 2.27351 15.3469 2.39994 15.1112 2.39994H0.88895C0.653202 2.39994 0.42711 2.27351 0.260411 2.04847C0.0937115 1.82342 6.10352e-05 1.5182 6.10352e-05 1.19994Z" fill="white"/>
</svg>
